<svg xmlns="http://www.w3.org/2000/svg" width="2106" height="1504" viewBox="0 0 2106 1504" version="1.1"><path d="M 601 183.423 C 601 183.731, 638.030 217.339, 649 226.986 C 659.820 236.502, 677.816 252.636, 715.419 286.531 C 731.874 301.364, 754.415 321.600, 765.509 331.500 C 799.378 361.722, 831.472 390.522, 853 410.012 C 870.642 425.984, 966.127 511.488, 984.988 528.203 L 991.423 533.906 944.718 603.703 C 919.030 642.091, 898.426 673.639, 898.932 673.808 C 900.818 674.441, 908 669.952, 908 668.140 C 908 667.140, 909.125 665.808, 910.500 665.182 C 912.214 664.401, 913 663.242, 913 661.497 C 913 659.716, 913.735 658.671, 915.446 658.020 C 917.161 657.369, 918.088 656.047, 918.547 653.602 C 919.025 651.053, 919.781 650.030, 921.351 649.806 C 922.973 649.575, 923.578 648.690, 923.817 646.198 C 924.043 643.847, 924.835 642.576, 926.567 641.787 C 928.301 640.997, 929 639.875, 929 637.879 C 929 636.339, 929.691 634.499, 930.535 633.789 C 934.343 630.589, 935 629.745, 935 628.044 C 935 627.046, 936.125 625.493, 937.500 624.592 C 938.935 623.652, 940 622, 940 620.714 C 940 619.350, 940.880 618.088, 942.250 617.487 C 943.664 616.867, 944.840 615.124, 945.415 612.798 C 946.061 610.182, 946.941 609.009, 948.415 608.798 C 950.035 608.566, 950.569 607.665, 950.810 604.754 C 951.059 601.743, 951.599 600.888, 953.560 600.396 C 955.434 599.925, 956 599.121, 956 596.927 C 956 594.982, 956.718 593.692, 958.250 592.885 C 961.098 591.386, 961.965 590.076, 961.985 587.250 C 961.995 585.714, 962.601 585, 963.893 585 C 965.949 585, 967 583.149, 967 579.527 C 967 577.926, 967.733 577.033, 969.387 576.618 C 971.116 576.184, 971.947 575.094, 972.404 572.662 C 972.825 570.418, 973.856 568.931, 975.517 568.174 C 977.444 567.296, 978 566.291, 978 563.682 C 978 561.067, 978.555 560.068, 980.500 559.182 C 982.127 558.441, 983 557.228, 983 555.709 C 983 554.276, 984.157 552.520, 986 551.158 C 987.658 549.932, 989 548.011, 989 546.864 C 989 545.722, 990.148 543.885, 991.550 542.782 C 993.734 541.064, 994.057 540.109, 993.800 536.138 C 993.564 532.485, 993.034 531.295, 991.305 530.536 C 990.097 530.007, 988.871 528.621, 988.579 527.458 C 988.287 526.295, 986.912 524.825, 985.524 524.193 C 984.136 523.560, 983 522.367, 983 521.540 C 983 520.714, 981.908 519.764, 980.572 519.429 C 979.237 519.094, 977.901 518.185, 977.604 517.410 C 977.306 516.634, 976.157 516, 975.050 516 C 973.736 516, 972.820 515.130, 972.408 513.491 C 972.027 511.971, 970.837 510.746, 969.389 510.383 C 968.075 510.053, 967 509.371, 967 508.867 C 967 508.363, 965.914 507.537, 964.586 507.033 C 963.258 506.528, 961.878 505.190, 961.519 504.060 C 961.160 502.929, 959.772 501.730, 958.433 501.394 C 957.095 501.058, 956 500.157, 956 499.392 C 956 498.626, 955.588 498, 955.085 498 C 954.581 498, 952.895 496.650, 951.338 495 C 949.781 493.350, 947.973 492, 947.321 492 C 946.668 492, 945.841 491.074, 945.482 489.943 C 945.123 488.811, 943.742 487.472, 942.414 486.967 C 941.086 486.463, 940 485.619, 940 485.092 C 940 484.566, 939.074 483.841, 937.943 483.482 C 936.811 483.123, 935.472 481.742, 934.967 480.414 C 934.435 479.015, 933.240 478, 932.123 478 C 930.881 478, 929.824 476.934, 929.150 475 C 928.474 473.060, 927.420 472, 926.169 472 C 925.076 472, 924.006 471.131, 923.712 470.005 C 923.425 468.908, 922.360 467.700, 921.345 467.321 C 920.330 466.942, 918.912 465.815, 918.193 464.816 C 917.475 463.817, 916.012 463, 914.943 463 C 913.678 463, 913 462.314, 913 461.035 C 913 459.955, 912.062 458.568, 910.914 457.954 C 909.767 457.340, 906.869 454.850, 904.472 452.419 C 902.076 449.989, 899.446 448, 898.628 448 C 897.809 448, 896.995 446.992, 896.820 445.760 C 896.644 444.528, 895.698 443.368, 894.718 443.181 C 893.738 442.994, 890.975 440.852, 888.578 438.421 C 886.182 435.989, 883.545 434, 882.719 434 C 881.893 434, 880.954 432.952, 880.632 431.671 C 880.311 430.391, 878.912 428.825, 877.524 428.193 C 876.136 427.560, 875 426.636, 875 426.138 C 875 425.640, 874.105 424.999, 873.012 424.713 C 871.919 424.427, 870.580 423.025, 870.037 421.597 C 869.438 420.022, 868.279 419, 867.092 419 C 865.994 419, 864.848 418.096, 864.481 416.939 C 864.121 415.806, 862.741 414.383, 861.413 413.779 C 860.086 413.174, 859 412.290, 859 411.815 C 859 411.339, 857.875 410.523, 856.500 410 C 855.125 409.477, 854 408.354, 854 407.503 C 854 406.653, 852.884 405.448, 851.519 404.827 C 850.155 404.205, 848.766 402.839, 848.434 401.791 C 848.101 400.743, 846.742 399.472, 845.414 398.967 C 844.086 398.463, 843 397.637, 843 397.133 C 843 396.629, 841.929 395.948, 840.619 395.619 C 839.310 395.291, 838.003 394.119, 837.714 393.016 C 837.426 391.913, 836.368 390.695, 835.363 390.309 C 834.358 389.923, 831.408 387.446, 828.807 384.804 C 826.206 382.162, 823.717 380, 823.276 380 C 822.835 380, 822.030 378.988, 821.487 377.750 C 820.944 376.512, 819.487 375.356, 818.250 375.180 C 816.821 374.977, 816 374.170, 816 372.966 C 816 371.923, 814.987 370.539, 813.750 369.889 C 812.513 369.240, 811.140 368.099, 810.700 367.354 C 810.260 366.609, 809.095 366, 808.111 366 C 807.126 366, 805.826 364.914, 805.221 363.587 C 804.617 362.259, 803.218 360.886, 802.112 360.536 C 801.007 360.185, 799.824 359.021, 799.484 357.949 C 799.144 356.877, 798.511 356, 798.079 356 C 797.646 356, 796.078 354.875, 794.595 353.500 C 793.111 352.125, 791.276 351, 790.518 351 C 789.760 351, 788.995 349.988, 788.820 348.750 C 788.614 347.304, 787.696 346.386, 786.250 346.180 C 785.013 346.005, 784 345.208, 784 344.409 C 784 343.610, 782.884 342.448, 781.519 341.827 C 780.155 341.205, 778.774 339.865, 778.452 338.848 C 778.093 337.718, 776.920 337, 775.433 337 C 774.095 337, 773 336.483, 773 335.851 C 773 334.178, 766.366 328, 764.569 328 C 763.727 328, 762.760 326.891, 762.420 325.536 C 762.079 324.181, 760.893 322.784, 759.784 322.431 C 758.674 322.079, 755.871 319.813, 753.554 317.395 C 751.238 314.978, 748.622 313, 747.741 313 C 746.841 313, 745.999 312.014, 745.820 310.750 C 745.614 309.304, 744.696 308.386, 743.250 308.180 C 742.013 308.005, 741 307.208, 741 306.409 C 741 305.610, 739.884 304.448, 738.519 303.827 C 737.155 303.205, 735.766 301.837, 735.432 300.787 C 735.099 299.737, 733.779 298.401, 732.498 297.817 C 731.217 297.234, 729.948 295.911, 729.678 294.878 C 729.408 293.845, 728.344 293, 727.313 293 C 726.149 293, 725.010 291.864, 724.306 290 C 723.546 287.987, 722.487 287, 721.087 287 C 719.899 287, 719 286.354, 719 285.500 C 719 284.578, 718.063 284, 716.570 284 C 714.814 284, 714.050 283.378, 713.820 281.759 C 713.639 280.495, 712.302 278.946, 710.750 278.205 C 709.237 277.482, 708 276.465, 708 275.945 C 708 275.425, 707.109 275, 706.019 275 C 704.738 275, 703.816 274.113, 703.408 272.491 C 703.040 271.023, 701.840 269.747, 700.515 269.414 C 699.270 269.102, 697.754 267.756, 697.147 266.423 C 696.540 265.090, 695.374 264, 694.557 264 C 693.739 264, 692.589 263.100, 692 262 C 691.411 260.900, 690.045 260, 688.965 260 C 687.660 260, 687 259.321, 687 257.979 C 687 256.797, 685.969 255.488, 684.519 254.827 C 683.155 254.205, 681.766 252.839, 681.434 251.791 C 681.101 250.743, 679.742 249.472, 678.414 248.967 C 677.086 248.463, 676 247.588, 676 247.025 C 676 246.461, 675.089 246, 673.975 246 C 672.730 246, 671.581 245.027, 670.990 243.474 C 670.462 242.085, 669.236 240.651, 668.265 240.287 C 667.294 239.922, 664.655 237.684, 662.400 235.312 C 660.145 232.941, 657.607 231, 656.759 231 C 655.911 231, 654.942 229.905, 654.606 228.567 C 654.270 227.228, 653.044 225.831, 651.881 225.462 C 650.718 225.093, 647.871 222.813, 645.554 220.395 C 643.238 217.978, 640.867 216, 640.286 216 C 639.705 216, 638.493 214.875, 637.592 213.500 C 636.691 212.125, 635.289 211, 634.477 211 C 633.665 211, 633 210.334, 633 209.519 C 633 208.705, 631.914 207.766, 630.587 207.432 C 629.175 207.078, 627.929 205.853, 627.585 204.483 C 627.230 203.068, 626.121 202.012, 624.789 201.819 C 623.394 201.617, 622.368 200.580, 622 199 C 621.638 197.447, 620.605 196.382, 619.270 196.189 C 617.953 195.997, 617.003 195.034, 616.811 193.698 C 616.640 192.498, 615.264 190.928, 613.750 190.205 C 612.237 189.482, 611 188.465, 611 187.945 C 611 187.425, 610.122 187, 609.050 187 C 607.977 187, 606.740 186.397, 606.300 185.659 C 605.647 184.566, 601 182.605, 601 183.423 M 591.667 184.667 C 590.566 185.767, 590.899 1256.296, 592 1258 C 592.627 1258.969, 592.975 1069.295, 592.985 721.750 C 592.993 425.987, 592.850 184, 592.667 184 C 592.483 184, 592.033 184.300, 591.667 184.667 M 1531.180 810.590 L 1530.860 1349.179 1533.180 1348.467 C 1534.456 1348.076, 1536.054 1347.313, 1536.730 1346.772 C 1538.443 1345.402, 1538.595 275.422, 1536.883 273.359 C 1536.263 272.612, 1534.798 272, 1533.628 272 L 1531.500 272 1531.180 810.590 M 1223.643 281.750 C 1223.372 282.712, 1218.425 300.150, 1212.648 320.500 C 1206.872 340.850, 1198.083 372.125, 1193.118 390 C 1188.154 407.875, 1179.373 439.375, 1173.606 460 C 1167.839 480.625, 1159.716 509.989, 1155.554 525.254 C 1151.393 540.519, 1145.538 561.669, 1142.544 572.254 C 1139.550 582.839, 1134.575 600.950, 1131.489 612.500 C 1128.402 624.050, 1121.806 648.125, 1116.831 666 C 1111.856 683.875, 1107.014 701.538, 1106.070 705.250 L 1104.354 712 1109.868 712 C 1114.709 712, 1115.160 711.837, 1113.558 710.666 C 1111.948 709.489, 1111.818 708.431, 1112.452 701.666 C 1112.968 696.163, 1113.560 694, 1114.550 694 C 1116.757 694, 1118 690.563, 1118 684.460 C 1118 679.601, 1118.358 678.506, 1120.500 676.821 C 1122.813 675.002, 1123 674.226, 1123 666.427 C 1123 659.444, 1123.330 657.670, 1124.924 656.076 C 1128.241 652.759, 1129 650.345, 1129 643.111 C 1129 636.956, 1129.308 635.783, 1131.500 633.591 C 1133.749 631.342, 1134 630.289, 1134 623.113 C 1134 616.142, 1134.241 615.058, 1135.908 614.529 C 1138.383 613.744, 1138.875 612.306, 1139.619 603.666 C 1139.973 599.561, 1140.811 596.038, 1141.579 595.419 C 1143.880 593.565, 1145 589.138, 1145 581.904 C 1145 576.182, 1145.313 574.822, 1146.750 574.292 C 1149.488 573.281, 1149.968 571.945, 1149.985 565.290 C 1149.998 559.845, 1150.331 558.774, 1152.690 556.587 C 1155.146 554.310, 1155.417 553.305, 1155.812 545.046 C 1156.132 538.358, 1156.595 536, 1157.587 536 C 1159.761 536, 1161 532.526, 1161 526.430 C 1161 521.634, 1161.397 520.362, 1163.500 518.412 C 1165.770 516.309, 1166 515.351, 1166 508 C 1166 500.464, 1166.189 499.729, 1168.735 497.370 C 1171.154 495.128, 1171.513 493.972, 1171.847 487.351 C 1172.164 481.087, 1172.615 479.476, 1174.613 477.478 C 1176.719 475.372, 1177 474.177, 1177 467.333 C 1177 460.155, 1177.197 459.418, 1179.628 457.479 C 1181.729 455.805, 1182.354 454.290, 1182.741 449.942 C 1183.095 445.959, 1183.798 444.046, 1185.362 442.807 C 1187.187 441.363, 1187.552 439.860, 1187.853 432.557 C 1188.047 427.851, 1188.577 424, 1189.031 424 C 1191.633 424, 1193 420.544, 1193 413.969 C 1193 407.760, 1193.268 406.832, 1195.716 404.562 C 1198.070 402.380, 1198.485 401.107, 1198.829 395.022 C 1199.114 389.984, 1199.608 388, 1200.578 388 C 1202.800 388, 1204 384.500, 1204 378.018 C 1204 372.728, 1204.340 371.607, 1206.525 369.702 C 1208.798 367.720, 1209.113 366.526, 1209.675 357.770 C 1210.190 349.737, 1210.603 347.943, 1212.042 347.487 C 1214.220 346.795, 1214.969 344.077, 1214.986 336.795 C 1214.998 332.054, 1215.422 330.669, 1217.500 328.591 C 1219.749 326.341, 1220 325.290, 1220 318.102 C 1220 311.311, 1220.293 309.908, 1221.953 308.745 C 1224.378 307.047, 1226 302.932, 1226 298.480 C 1226 296.198, 1226.817 294.274, 1228.500 292.591 C 1232.848 288.243, 1231.209 280, 1225.996 280 C 1224.972 280, 1223.913 280.788, 1223.643 281.750 M 1214.870 284.343 C 1212.296 286.582, 1211.079 288.590, 1210.683 291.250 C 1210.377 293.313, 1210.270 295, 1210.445 295 C 1211.062 295, 1219.269 281.936, 1218.887 281.563 C 1218.674 281.356, 1216.867 282.607, 1214.870 284.343 M 1345.975 460.565 C 1345.351 462.206, 1345 549.757, 1345 703.546 L 1345 943.962 1342.369 944.622 C 1340.474 945.098, 1339.481 944.823, 1338.819 943.641 C 1338.314 942.739, 1337.078 942, 1336.073 942 C 1335.067 942, 1333.685 941.325, 1333 940.500 C 1332.315 939.675, 1330.963 939, 1329.994 939 C 1329.026 939, 1327.989 938.067, 1327.691 936.926 C 1327.393 935.785, 1326.230 934.611, 1325.107 934.318 C 1323.985 934.024, 1322.811 932.981, 1322.500 932 C 1322.189 931.019, 1321.054 929.986, 1319.979 929.705 C 1318.904 929.424, 1317.580 928.025, 1317.037 926.597 C 1316.423 924.981, 1315.284 924, 1314.025 924 C 1312.639 924, 1312 923.342, 1312 921.913 C 1312 920.523, 1311.020 919.456, 1309.066 918.719 C 1307.452 918.110, 1305.910 916.765, 1305.640 915.731 C 1305.370 914.697, 1304.215 913.607, 1303.074 913.309 C 1301.933 913.011, 1301 912.153, 1301 911.402 C 1301 910.652, 1299.918 909.766, 1298.594 909.434 C 1297.271 909.102, 1295.965 907.974, 1295.691 906.927 C 1295.418 905.881, 1294.063 904.594, 1292.682 904.069 C 1291.301 903.544, 1289.877 902.189, 1289.518 901.057 C 1289.159 899.926, 1288.236 899, 1287.468 899 C 1286.699 899, 1285.589 898.100, 1285 897 C 1284.411 895.900, 1283.034 895, 1281.940 895 C 1280.738 895, 1279.574 894.010, 1279 892.500 C 1278.477 891.125, 1277.654 890, 1277.171 890 C 1276.687 890, 1275.078 888.875, 1273.595 887.500 C 1272.111 886.125, 1270.577 885, 1270.186 885 C 1269.794 885, 1269.030 883.987, 1268.487 882.750 C 1267.944 881.513, 1266.487 880.356, 1265.250 880.180 C 1263.790 879.973, 1263 879.172, 1263 877.899 C 1263 876.820, 1262.213 875.647, 1261.250 875.293 C 1260.287 874.939, 1258.522 873.715, 1257.327 872.575 C 1252.996 868.441, 1248.971 865.859, 1247.350 866.176 C 1245.493 866.540, 1259.137 878.902, 1325.500 936.983 C 1337.050 947.092, 1346.831 955.844, 1347.235 956.431 C 1347.639 957.019, 1347.976 845.112, 1347.985 707.750 C 1347.993 570.388, 1347.764 458, 1347.475 458 C 1347.187 458, 1346.512 459.154, 1345.975 460.565 M 776 826.298 L 776 1085.596 763.750 1097.522 C 734.418 1126.079, 719.171 1140.813, 682 1176.524 C 642.773 1214.209, 623.684 1232.617, 604.500 1251.257 L 594.500 1260.974 598.553 1260.987 C 603.258 1261.002, 610.648 1256.250, 611.558 1252.625 C 611.861 1251.416, 613.097 1249.993, 614.305 1249.464 C 615.512 1248.934, 616.638 1247.530, 616.807 1246.344 C 616.990 1245.065, 618.063 1243.950, 619.447 1243.603 C 620.839 1243.253, 622.033 1242.006, 622.408 1240.509 C 622.755 1239.129, 623.679 1238, 624.462 1238 C 625.246 1238, 626.475 1237.183, 627.193 1236.184 C 627.912 1235.185, 629.330 1234.058, 630.345 1233.679 C 631.360 1233.300, 632.425 1232.092, 632.712 1230.995 C 633.010 1229.853, 634.076 1229, 635.203 1229 C 636.474 1229, 637.576 1227.935, 638.306 1226 C 638.990 1224.187, 640.155 1223, 641.251 1223 C 642.247 1223, 643.315 1222.342, 643.624 1221.538 C 643.932 1220.734, 645.006 1219.816, 646.009 1219.497 C 647.012 1219.179, 648.282 1217.629, 648.832 1216.053 C 649.381 1214.478, 650.768 1212.891, 651.915 1212.527 C 653.062 1212.163, 654 1211.482, 654 1211.014 C 654 1209.737, 661.676 1202, 662.943 1202 C 663.548 1202, 664.555 1200.875, 665.182 1199.500 C 665.808 1198.125, 666.759 1197, 667.294 1197 C 667.829 1197, 670.482 1194.750, 673.189 1192 C 675.896 1189.250, 678.545 1187, 679.077 1187 C 679.608 1187, 680.540 1185.910, 681.147 1184.577 C 681.754 1183.244, 683.288 1181.893, 684.556 1181.575 C 685.954 1181.225, 686.987 1180.111, 687.181 1178.748 C 687.381 1177.338, 688.304 1176.385, 689.656 1176.193 C 690.980 1176.004, 692.052 1174.927, 692.436 1173.400 C 692.779 1172.033, 693.834 1170.633, 694.780 1170.288 C 695.726 1169.944, 698.368 1167.713, 700.651 1165.331 C 702.934 1162.949, 705.306 1161, 705.922 1161 C 706.539 1161, 707.533 1159.925, 708.132 1158.610 C 708.731 1157.296, 710.296 1155.731, 711.610 1155.132 C 712.925 1154.533, 714 1153.182, 714 1152.130 C 714 1150.947, 714.912 1149.988, 716.389 1149.617 C 717.837 1149.254, 719.027 1148.029, 719.408 1146.509 C 719.755 1145.129, 720.439 1144, 720.929 1144 C 723.045 1144, 730 1138.497, 730 1136.822 C 730 1135.651, 730.733 1135, 732.052 1135 C 733.395 1135, 734.438 1134.043, 735.070 1132.229 C 735.601 1130.706, 737.040 1129.018, 738.268 1128.479 C 739.496 1127.941, 740.644 1126.487, 740.820 1125.250 C 741.031 1123.763, 741.825 1123, 743.163 1123 C 744.359 1123, 745.405 1122.166, 745.721 1120.960 C 746.014 1119.838, 747.547 1118.251, 749.127 1117.434 C 750.707 1116.617, 752 1115.563, 752 1115.091 C 752 1114.619, 752.895 1113.999, 753.988 1113.713 C 755.081 1113.427, 756.420 1112.025, 756.963 1110.597 C 757.550 1109.053, 758.724 1108, 759.859 1108 C 760.948 1108, 761.999 1107.111, 762.309 1105.926 C 762.607 1104.785, 763.785 1103.607, 764.926 1103.309 C 766.067 1103.011, 767 1102.346, 767 1101.831 C 767 1101.317, 768.350 1100.425, 770 1099.850 C 772.211 1099.080, 773 1098.172, 773 1096.402 C 773 1094.657, 773.554 1094, 775.025 1094 C 777.551 1094, 779 1090.452, 779 1084.264 C 779 1081.502, 779.622 1078.970, 780.553 1077.941 C 781.922 1076.428, 782.190 1065.660, 782.803 987.362 C 783.187 938.488, 783.474 891.750, 783.443 883.500 C 783.411 875.250, 783.411 843.300, 783.443 812.500 C 783.621 638.022, 783.601 635.914, 781.742 629.356 C 779.636 621.927, 779.485 609.269, 781.426 602.872 C 782.199 600.327, 783.152 594.140, 783.544 589.122 C 784.237 580.273, 784.332 580, 786.735 580 C 788.186 580, 790.027 581.035, 791.179 582.500 C 792.260 583.875, 793.787 585, 794.573 585 C 795.358 585, 796 585.686, 796 586.525 C 796 587.363, 797.086 588.463, 798.414 588.967 C 799.742 589.472, 801.123 590.811, 801.482 591.943 C 801.848 593.096, 802.995 594, 804.092 594 C 805.265 594, 806.434 595.012, 807.010 596.526 C 807.538 597.915, 808.706 599.334, 809.605 599.678 C 811.691 600.479, 818 606.758, 818 608.033 C 818 608.565, 819.094 609, 820.430 609 C 822.151 609, 822.954 609.628, 823.180 611.148 C 823.356 612.329, 824.361 613.792, 825.414 614.398 C 826.467 615.004, 829.254 617.413, 831.606 619.750 C 833.959 622.087, 836.536 624, 837.334 624 C 838.131 624, 839.066 625.125, 839.411 626.500 C 839.806 628.077, 840.745 629, 841.952 629 C 843.004 629, 844.151 629.900, 844.500 631 C 844.849 632.100, 845.769 633, 846.544 633 C 847.320 633, 848.680 634.107, 849.566 635.461 C 850.453 636.815, 851.994 638.181, 852.990 638.497 C 853.986 638.813, 855.079 640.181, 855.420 641.536 C 855.820 643.130, 856.746 644, 858.044 644 C 859.283 644, 860.427 644.992, 861.037 646.597 C 861.580 648.025, 862.888 649.419, 863.943 649.695 C 864.998 649.971, 866.104 650.828, 866.399 651.599 C 866.695 652.369, 867.615 653, 868.443 653 C 869.271 653, 870.647 654.350, 871.500 656 C 872.429 657.796, 873.843 659, 875.026 659 C 876.112 659, 877 659.645, 877 660.433 C 877 661.221, 877.860 662.138, 878.911 662.472 C 879.961 662.805, 881.547 664.185, 882.434 665.539 C 883.320 666.893, 884.688 668, 885.473 668 C 886.258 668, 887.260 668.609, 887.700 669.354 C 888.528 670.756, 892.942 673.414, 893.473 672.831 C 893.638 672.649, 877.962 658.246, 858.637 640.824 C 839.312 623.402, 813.011 599.664, 800.191 588.074 C 787.371 576.483, 776.683 567, 776.441 567 C 776.198 567, 776 683.684, 776 826.298 M 1242.500 711 C 1241.281 711.524, 1247.672 711.887, 1258.857 711.930 C 1275.169 711.992, 1277.146 712.176, 1276.607 713.582 C 1276.273 714.452, 1263.737 733.347, 1248.750 755.571 C 1233.762 777.795, 1213.756 807.570, 1204.292 821.739 C 1194.827 835.908, 1184.282 851.550, 1180.858 856.500 C 1174.474 865.730, 1112.877 957.306, 1062.139 1033 C 1046.470 1056.375, 1022.785 1091.700, 1009.504 1111.500 C 932.931 1225.659, 912.253 1257, 913.508 1257 C 917.489 1257, 924 1252.660, 924 1250.006 C 924 1249.079, 925.061 1247.837, 926.358 1247.246 C 928.026 1246.487, 928.897 1245.047, 929.330 1242.335 C 929.760 1239.652, 930.629 1238.198, 932.222 1237.499 C 933.867 1236.778, 934.583 1235.518, 934.797 1232.967 C 935.009 1230.456, 935.732 1229.154, 937.297 1228.467 C 938.890 1227.768, 939.585 1226.479, 939.807 1223.812 C 940.045 1220.944, 940.584 1220.055, 942.228 1219.812 C 943.544 1219.618, 944.717 1218.373, 945.333 1216.517 C 945.877 1214.877, 947.374 1212.707, 948.661 1211.695 C 949.947 1210.683, 951 1208.869, 951 1207.665 C 951 1206.373, 951.903 1205.069, 953.202 1204.487 C 954.427 1203.938, 955.756 1202.111, 956.200 1200.367 C 956.678 1198.488, 957.800 1197.024, 959.005 1196.709 C 960.274 1196.377, 961.246 1195.022, 961.645 1193.024 C 961.993 1191.286, 963.340 1189.168, 964.639 1188.317 C 965.937 1187.466, 967 1185.877, 967 1184.786 C 967 1183.695, 968.350 1181.541, 970 1180 C 971.650 1178.459, 973 1176.360, 973 1175.336 C 973 1174.312, 974.013 1173.030, 975.250 1172.487 C 976.657 1171.870, 977.620 1170.450, 977.822 1168.696 C 978.029 1166.887, 979.005 1165.499, 980.572 1164.785 C 982.146 1164.068, 983 1162.848, 983 1161.315 C 983 1159.727, 983.803 1158.645, 985.446 1158.020 C 987.129 1157.380, 988.088 1156.049, 988.519 1153.751 C 988.910 1151.667, 989.964 1150.052, 991.323 1149.456 C 992.876 1148.774, 993.587 1147.464, 993.802 1144.887 C 994.028 1142.187, 994.723 1140.992, 996.552 1140.158 C 998.421 1139.307, 999.001 1138.269, 999.006 1135.771 C 999.011 1133.187, 999.642 1132.142, 1002.006 1130.797 C 1004.113 1129.598, 1005 1128.331, 1005 1126.522 C 1005 1124.699, 1005.728 1123.674, 1007.500 1123 C 1009.230 1122.342, 1010 1121.293, 1010 1119.594 C 1010 1117.810, 1010.614 1117.052, 1012.250 1116.820 C 1013.903 1116.585, 1014.740 1115.529, 1015.404 1112.840 C 1015.979 1110.516, 1017.165 1108.790, 1018.654 1108.112 C 1020.368 1107.331, 1021 1106.222, 1021 1103.997 C 1021 1101.668, 1021.588 1100.727, 1023.500 1100 C 1025.264 1099.329, 1026 1098.299, 1026 1096.500 C 1026 1094.695, 1026.736 1093.671, 1028.522 1092.992 C 1030.153 1092.372, 1031.248 1091.008, 1031.624 1089.130 C 1031.971 1087.394, 1033.167 1085.789, 1034.602 1085.135 C 1036.147 1084.432, 1037 1083.203, 1037 1081.682 C 1037 1080.148, 1037.857 1078.931, 1039.446 1078.207 C 1041.110 1077.448, 1042.105 1075.958, 1042.557 1073.546 C 1042.930 1071.559, 1043.818 1070, 1044.576 1070 C 1046.187 1070, 1048 1066.915, 1048 1064.174 C 1048 1062.920, 1048.899 1061.991, 1050.500 1061.589 C 1052.335 1061.129, 1053 1060.295, 1053 1058.456 C 1053 1056.742, 1053.747 1055.667, 1055.364 1055.052 C 1057.897 1054.089, 1059 1052.148, 1059 1048.655 C 1059 1047.353, 1059.906 1046.077, 1061.250 1045.487 C 1062.762 1044.824, 1063.599 1043.478, 1063.803 1041.386 C 1064.009 1039.277, 1064.855 1037.931, 1066.427 1037.215 C 1067.955 1036.519, 1068.973 1034.957, 1069.407 1032.644 C 1069.897 1030.031, 1070.634 1029.050, 1072.283 1028.815 C 1073.859 1028.591, 1074.591 1027.705, 1074.816 1025.750 C 1074.990 1024.237, 1075.521 1023, 1075.995 1023 C 1077.780 1023, 1080 1019.758, 1080 1017.151 C 1080 1015.396, 1081.054 1013.520, 1083 1011.813 C 1084.788 1010.244, 1086 1008.199, 1086 1006.751 C 1086 1005.129, 1086.832 1003.942, 1088.500 1003.182 C 1090.161 1002.425, 1091 1001.233, 1091 999.630 C 1091 997.890, 1091.697 997.042, 1093.500 996.589 C 1095.303 996.137, 1096 995.289, 1096 993.549 C 1096 992.009, 1097.086 990.363, 1099 989 C 1100.773 987.737, 1102 985.966, 1102 984.669 C 1102 983.352, 1102.900 982.079, 1104.250 981.487 C 1105.804 980.805, 1106.598 979.480, 1106.817 977.200 C 1107.045 974.824, 1107.790 973.650, 1109.474 973.010 C 1110.955 972.447, 1112.067 970.973, 1112.500 969 C 1112.941 966.994, 1114.045 965.553, 1115.593 964.965 C 1117.267 964.328, 1118 963.273, 1118 961.500 C 1118 959.701, 1118.736 958.671, 1120.500 958 C 1122.514 957.234, 1123 956.364, 1123 953.525 C 1123 950.797, 1123.407 950, 1124.800 950 C 1127.115 950, 1129 948.101, 1129 945.769 C 1129 944.761, 1129.787 943.647, 1130.750 943.292 C 1133.049 942.443, 1133.966 941.007, 1133.985 938.225 C 1133.995 936.727, 1134.853 935.626, 1136.500 935 C 1137.989 934.434, 1139 933.260, 1139 932.096 C 1139 930.265, 1139.634 929.430, 1143.465 926.211 C 1144.309 925.501, 1145 923.578, 1145 921.936 C 1145 919.672, 1145.604 918.721, 1147.500 918 C 1149.397 917.279, 1150 916.329, 1150 914.060 C 1150 911.977, 1150.683 910.711, 1152.250 909.885 C 1155.207 908.328, 1155.966 907.076, 1155.985 903.725 C 1155.996 901.693, 1156.669 900.696, 1158.500 900 C 1160.267 899.328, 1161 898.300, 1161 896.493 C 1161 894.972, 1161.708 893.676, 1162.750 893.292 C 1165.128 892.414, 1165.967 890.995, 1165.985 887.818 C 1165.995 885.990, 1166.955 884.456, 1169 883 C 1171.098 881.506, 1172 880.030, 1172 878.092 C 1172 876.107, 1172.709 874.998, 1174.500 874.182 C 1176.161 873.425, 1177 872.233, 1177 870.630 C 1177 868.894, 1177.697 868.042, 1179.485 867.593 C 1181.043 867.202, 1182.209 866.016, 1182.611 864.412 C 1182.965 863.005, 1184.321 861.448, 1185.627 860.952 C 1187.362 860.292, 1188 859.280, 1188 857.185 C 1188 855.101, 1188.680 854.011, 1190.500 853.182 C 1192.161 852.425, 1193 851.233, 1193 849.630 C 1193 847.892, 1193.697 847.042, 1195.491 846.592 C 1197.463 846.097, 1198.114 845.137, 1198.619 841.983 C 1198.969 839.792, 1199.616 838, 1200.056 838 C 1201.719 838, 1204 834.763, 1204 832.404 C 1204 830.734, 1204.767 829.659, 1206.402 829.037 C 1208.157 828.370, 1208.978 827.089, 1209.453 824.277 C 1209.896 821.657, 1210.804 820.122, 1212.302 819.465 C 1213.778 818.817, 1214.601 817.453, 1214.809 815.312 C 1215.041 812.912, 1215.659 812.047, 1217.309 811.812 C 1218.755 811.606, 1219.617 810.672, 1219.844 809.063 C 1220.033 807.723, 1221.496 805.405, 1223.094 803.912 C 1224.692 802.419, 1226 800.360, 1226 799.336 C 1226 798.312, 1227.013 797.030, 1228.250 796.487 C 1229.904 795.762, 1230.582 794.506, 1230.810 791.750 C 1231.055 788.790, 1231.536 788, 1233.092 788 C 1235.111 788, 1235.374 787.581, 1236.462 782.644 C 1236.833 780.959, 1237.913 779.574, 1239.097 779.265 C 1240.260 778.960, 1241.326 777.619, 1241.636 776.071 C 1241.930 774.602, 1243.122 772.973, 1244.286 772.451 C 1245.454 771.926, 1246.774 770.043, 1247.230 768.250 C 1247.685 766.462, 1248.703 765, 1249.493 765 C 1251.261 765, 1253 761.926, 1253 758.803 C 1253 757.347, 1253.843 756.104, 1255.250 755.487 C 1256.893 754.766, 1257.583 753.505, 1257.807 750.812 C 1258.049 747.898, 1258.572 747.059, 1260.300 746.812 C 1261.760 746.604, 1262.655 745.612, 1262.994 743.828 C 1263.272 742.358, 1264.737 740.188, 1266.250 739.005 C 1267.763 737.823, 1269 736.060, 1269 735.088 C 1269 734.116, 1270.125 732.808, 1271.500 732.182 C 1272.898 731.545, 1274 730.200, 1274 729.130 C 1274 727.951, 1274.910 726.988, 1276.372 726.621 C 1280.310 725.633, 1281.444 715.444, 1278 712 C 1276.163 710.163, 1274.719 710.006, 1260.250 710.070 C 1251.588 710.109, 1243.600 710.527, 1242.500 711 M 851.742 831.125 C 850.784 831.661, 850 832.991, 850 834.081 C 850 835.171, 849.312 836.327, 848.472 836.649 C 846.528 837.395, 844.714 840.729, 845.533 842.053 C 845.877 842.610, 847.946 840.299, 850.131 836.918 C 852.317 833.537, 853.965 830.631, 853.794 830.461 C 853.623 830.290, 852.700 830.589, 851.742 831.125 M 850.336 845.500 C 850.551 846.150, 879.139 846.675, 932.083 847 C 984.070 847.319, 1014.112 847.864, 1015.193 848.508 C 1016.123 849.062, 1017.301 850.637, 1017.810 852.008 C 1018.674 854.336, 1018.783 854.216, 1019.467 850.183 C 1019.869 847.808, 1019.890 845.558, 1019.514 845.183 C 1018.372 844.045, 849.959 844.361, 850.336 845.500 M 1006.975 885.565 C 1006.439 886.976, 1006.041 890.238, 1006.091 892.815 L 1006.182 897.500 1008.078 891.500 C 1009.120 888.200, 1009.979 884.938, 1009.986 884.250 C 1010.010 882.034, 1007.981 882.921, 1006.975 885.565 M 997.086 923.838 C 996.400 925.122, 995.643 928.721, 995.405 931.836 L 994.972 937.500 997.022 930.607 C 999.174 923.370, 999.207 919.876, 997.086 923.838 M 980.602 983.158 C 979.616 984.566, 979.027 987.377, 979.071 990.473 L 979.142 995.500 981.104 988.616 C 983.236 981.137, 983.095 979.599, 980.602 983.158 M 1140.733 1015.088 C 1141.033 1016.233, 1142.302 1017.636, 1143.554 1018.207 C 1144.806 1018.777, 1146.052 1020.089, 1146.322 1021.122 C 1146.592 1022.155, 1147.509 1023, 1148.360 1023 C 1149.211 1023, 1151.903 1025.025, 1154.343 1027.500 C 1156.783 1029.975, 1159.452 1032, 1160.273 1032 C 1161.095 1032, 1162.001 1032.895, 1162.287 1033.988 C 1162.573 1035.081, 1163.914 1036.397, 1165.267 1036.911 C 1166.620 1037.426, 1167.999 1038.556, 1168.332 1039.423 C 1168.665 1040.291, 1169.799 1041, 1170.852 1041 C 1171.924 1041, 1172.996 1041.878, 1173.288 1042.995 C 1173.575 1044.092, 1174.640 1045.308, 1175.655 1045.696 C 1176.670 1046.085, 1178.208 1047.276, 1179.074 1048.343 C 1179.940 1049.411, 1181.217 1050.094, 1181.913 1049.862 C 1182.609 1049.630, 1174.049 1041.579, 1162.892 1031.970 C 1139.772 1012.059, 1139.983 1012.220, 1140.733 1015.088 M 1184.167 1052.648 C 1184.362 1053.667, 1185.482 1054.638, 1186.658 1054.806 C 1187.834 1054.975, 1189.034 1056.020, 1189.324 1057.130 C 1189.614 1058.240, 1190.770 1059.389, 1191.893 1059.682 C 1193.015 1059.976, 1194.197 1061.044, 1194.518 1062.057 C 1194.839 1063.069, 1196.005 1064.184, 1197.108 1064.534 C 1198.212 1064.885, 1199.528 1066.258, 1200.033 1067.586 C 1200.586 1069.041, 1201.755 1070, 1202.975 1070 C 1204.089 1070, 1205 1070.438, 1205 1070.974 C 1205 1071.510, 1206.293 1072.617, 1207.873 1073.434 C 1209.453 1074.251, 1210.986 1075.838, 1211.279 1076.960 C 1211.573 1078.082, 1212.593 1079, 1213.546 1079 C 1214.499 1079, 1215.818 1079.737, 1216.477 1080.638 C 1217.136 1081.538, 1218.233 1082.089, 1218.916 1081.861 C 1219.598 1081.634, 1212.624 1074.934, 1203.416 1066.974 C 1184.469 1050.592, 1183.660 1049.990, 1184.167 1052.648 M 959.173 1062.292 C 958.561 1063.029, 957.816 1066.302, 957.516 1069.566 L 956.971 1075.500 959.019 1068.616 C 961.109 1061.590, 961.150 1059.910, 959.173 1062.292 M 954.486 1079.015 C 953.332 1080.291, 952.495 1083.137, 952.207 1086.765 C 951.957 1089.919, 951.982 1092.275, 952.263 1092 C 952.841 1091.435, 956.993 1077, 956.578 1077 C 956.431 1077, 955.489 1077.907, 954.486 1079.015 M 1221 1083.929 C 1221 1085.140, 1223.872 1088, 1225.088 1088 C 1225.608 1088, 1227.974 1090.025, 1230.345 1092.500 C 1232.717 1094.975, 1235.133 1097, 1235.714 1097 C 1236.295 1097, 1237.507 1098.125, 1238.408 1099.500 C 1239.309 1100.875, 1240.711 1102, 1241.523 1102 C 1242.335 1102, 1243 1102.666, 1243 1103.481 C 1243 1104.295, 1244.109 1105.240, 1245.464 1105.580 C 1246.819 1105.921, 1248.208 1107.080, 1248.550 1108.157 C 1248.892 1109.234, 1250.258 1110.528, 1251.586 1111.033 C 1252.914 1111.537, 1254 1112.359, 1254 1112.859 C 1254 1113.358, 1254.900 1114.002, 1256 1114.290 C 1257.100 1114.577, 1258 1114.660, 1258 1114.472 C 1258 1113.943, 1222.158 1083, 1221.544 1083 C 1221.245 1083, 1221 1083.418, 1221 1083.929 M 1259.153 1116.554 C 1259.357 1117.616, 1260.730 1119.063, 1262.203 1119.769 C 1263.676 1120.475, 1265.164 1121.941, 1265.508 1123.026 C 1265.853 1124.112, 1266.725 1125, 1267.445 1125 C 1268.166 1125, 1269.398 1125.967, 1270.183 1127.148 C 1270.967 1128.330, 1272.194 1129.102, 1272.908 1128.864 C 1273.673 1128.609, 1271.034 1125.591, 1266.494 1121.528 C 1261.349 1116.922, 1258.905 1115.267, 1259.153 1116.554 M 943.631 1118.512 C 942.042 1120.101, 940.551 1127.451, 941.173 1130.633 C 941.374 1131.660, 942.471 1129.013, 943.611 1124.750 C 944.752 1120.487, 945.563 1117, 945.414 1117 C 945.265 1117, 944.462 1117.680, 943.631 1118.512 M 1275 1130.353 C 1275 1132.258, 1277.697 1135, 1279.571 1135 C 1280.357 1135, 1281 1135.675, 1281 1136.500 C 1281 1137.325, 1281.412 1138, 1281.915 1138 C 1282.419 1138, 1284.105 1139.350, 1285.662 1141 C 1287.219 1142.650, 1288.882 1144, 1289.356 1144 C 1290.274 1144, 1293.846 1147.044, 1297.277 1150.750 C 1298.423 1151.987, 1299.882 1153, 1300.520 1153 C 1301.157 1153, 1302.192 1154.125, 1302.818 1155.500 C 1303.445 1156.875, 1304.626 1158, 1305.443 1158 C 1306.261 1158, 1307.395 1158.870, 1307.964 1159.932 C 1308.533 1160.995, 1309.850 1162.135, 1310.891 1162.465 C 1311.932 1162.796, 1313.016 1163.951, 1313.298 1165.033 C 1313.581 1166.115, 1314.565 1167, 1315.485 1167 C 1316.405 1167, 1319.183 1169.025, 1321.658 1171.500 C 1324.133 1173.975, 1326.540 1176, 1327.008 1176 C 1327.475 1176, 1329.971 1178.025, 1332.554 1180.500 C 1335.137 1182.975, 1337.817 1185, 1338.509 1185 C 1339.201 1185, 1340.001 1185.898, 1340.288 1186.995 C 1340.575 1188.092, 1341.640 1189.300, 1342.655 1189.679 C 1343.670 1190.058, 1345.088 1191.185, 1345.807 1192.184 C 1346.525 1193.183, 1347.691 1194, 1348.396 1194 C 1349.102 1194, 1350.192 1195.125, 1350.818 1196.500 C 1351.486 1197.967, 1352.793 1199, 1353.979 1199 C 1355.121 1199, 1356 1199.661, 1356 1200.521 C 1356 1201.358, 1357.116 1202.552, 1358.481 1203.173 C 1359.845 1203.795, 1361.226 1205.135, 1361.548 1206.152 C 1361.871 1207.168, 1363.014 1208, 1364.089 1208 C 1365.199 1208, 1366.531 1209.072, 1367.173 1210.481 C 1367.795 1211.845, 1369.094 1213.212, 1370.059 1213.519 C 1371.025 1213.825, 1372.068 1214.734, 1372.376 1215.538 C 1372.685 1216.342, 1373.596 1217, 1374.401 1217 C 1375.205 1217, 1376.825 1218.350, 1378 1220 C 1379.175 1221.650, 1380.781 1223, 1381.568 1223 C 1382.356 1223, 1383 1223.460, 1383 1224.021 C 1383 1224.583, 1384.116 1225.552, 1385.481 1226.173 C 1386.845 1226.795, 1388.225 1228.134, 1388.547 1229.149 C 1388.870 1230.165, 1390.228 1231.270, 1391.567 1231.606 C 1392.905 1231.942, 1394 1232.827, 1394 1233.573 C 1394 1234.319, 1394.934 1235.430, 1396.076 1236.041 C 1397.217 1236.651, 1399.017 1238.017, 1400.076 1239.076 C 1401.134 1240.134, 1402.424 1241, 1402.941 1241 C 1403.459 1241, 1405.936 1243.025, 1408.447 1245.500 C 1410.958 1247.975, 1413.410 1250, 1413.897 1250 C 1414.385 1250, 1415.066 1251.125, 1415.411 1252.500 C 1415.819 1254.125, 1416.739 1255, 1418.040 1255 C 1419.202 1255, 1420.518 1256.042, 1421.173 1257.481 C 1421.795 1258.845, 1423.094 1260.212, 1424.059 1260.519 C 1425.025 1260.825, 1426.068 1261.734, 1426.376 1262.538 C 1426.685 1263.342, 1427.779 1264, 1428.808 1264 C 1429.837 1264, 1431.192 1265.125, 1431.818 1266.500 C 1432.445 1267.875, 1433.626 1269, 1434.443 1269 C 1435.261 1269, 1436.411 1269.900, 1437 1271 C 1437.589 1272.100, 1438.906 1273, 1439.927 1273 C 1441.070 1273, 1442.023 1273.955, 1442.407 1275.485 C 1442.792 1277.018, 1443.982 1278.208, 1445.515 1278.593 C 1446.882 1278.936, 1448 1279.628, 1448 1280.130 C 1448 1280.632, 1449.087 1281.538, 1450.415 1282.143 C 1451.744 1282.749, 1453.060 1284.122, 1453.341 1285.196 C 1453.622 1286.270, 1454.730 1287.378, 1455.804 1287.659 C 1456.878 1287.940, 1458.251 1289.256, 1458.857 1290.585 C 1459.462 1291.913, 1460.542 1293, 1461.256 1293 C 1461.971 1293, 1463.326 1293.900, 1464.268 1295 C 1465.210 1296.100, 1466.630 1297, 1467.423 1297 C 1468.216 1297, 1469.159 1297.926, 1469.518 1299.057 C 1469.877 1300.189, 1471.258 1301.528, 1472.586 1302.033 C 1473.914 1302.537, 1475 1303.412, 1475 1303.975 C 1475 1304.539, 1475.701 1305, 1476.558 1305 C 1477.415 1305, 1480.141 1307.054, 1482.616 1309.564 C 1485.090 1312.074, 1487.595 1313.968, 1488.181 1313.773 C 1489.206 1313.431, 1465.931 1292.925, 1414 1248.414 C 1369.185 1210.003, 1361.698 1203.581, 1332.500 1178.509 C 1316.550 1164.812, 1297.088 1148.036, 1289.250 1141.228 C 1281.387 1134.397, 1275 1129.523, 1275 1130.353 M 916.631 1216.512 C 915.799 1217.344, 914.824 1219.991, 914.464 1222.395 C 913.289 1230.228, 914.452 1230.327, 916.609 1222.576 C 917.768 1218.409, 918.588 1215, 918.430 1215 C 918.272 1215, 917.462 1215.680, 916.631 1216.512 M 1491.147 1316.568 C 1491.348 1317.630, 1492.526 1318.946, 1493.765 1319.491 C 1495.004 1320.036, 1496.278 1321.299, 1496.595 1322.298 C 1496.912 1323.297, 1498.258 1324.528, 1499.586 1325.033 C 1500.914 1325.537, 1502 1326.423, 1502 1327 C 1502 1327.577, 1503.125 1328.477, 1504.500 1329 C 1506.020 1329.578, 1507 1330.737, 1507 1331.956 C 1507 1333.242, 1507.866 1334.179, 1509.413 1334.568 C 1510.851 1334.928, 1512.072 1336.149, 1512.432 1337.587 C 1512.829 1339.168, 1513.754 1340, 1515.113 1340 C 1516.335 1340, 1517.399 1340.809, 1517.702 1341.969 C 1518.295 1344.235, 1526.335 1349.285, 1528.604 1348.816 C 1529.534 1348.623, 1525.332 1344.383, 1517.814 1337.928 C 1511.041 1332.113, 1502.189 1324.493, 1498.142 1320.995 C 1493.038 1316.584, 1490.895 1315.227, 1491.147 1316.568" stroke="none" fill="#000000" fill-rule="evenodd"/><path d="M 593.454 228 C 593.454 249.175, 593.587 257.838, 593.749 247.250 C 593.911 236.663, 593.911 219.338, 593.749 208.750 C 593.587 198.163, 593.454 206.825, 593.454 228 M 1204.500 304.115 C 1196.250 316.765, 1189.334 327.873, 1189.131 328.798 C 1188.927 329.722, 1187.949 331.048, 1186.957 331.743 C 1185.965 332.438, 1184.634 334.580, 1183.999 336.503 C 1183.364 338.426, 1182.281 340, 1181.591 340 C 1180.902 340, 1179.699 341.238, 1178.919 342.750 C 1178.139 344.262, 1176.718 346.367, 1175.761 347.426 C 1174.805 348.486, 1173.758 350.188, 1173.434 351.209 C 1173.110 352.229, 1171.755 354.241, 1170.422 355.678 C 1169.090 357.116, 1168 359.365, 1168 360.677 C 1168 362.032, 1167.244 363.346, 1166.250 363.719 C 1163.793 364.641, 1162.069 367.106, 1162.032 369.750 C 1162.014 370.988, 1161.376 372, 1160.614 372 C 1159.852 372, 1158.481 373.574, 1157.568 375.498 C 1156.655 377.422, 1154.804 380.188, 1153.454 381.644 C 1152.104 383.101, 1151 384.901, 1151 385.646 C 1151 386.391, 1150.621 387, 1150.157 387 C 1149.694 387, 1148.457 388.688, 1147.407 390.750 C 1146.358 392.813, 1144.775 395.045, 1143.888 395.710 C 1143.001 396.376, 1141.685 398.347, 1140.963 400.090 C 1140.241 401.833, 1138.604 404.305, 1137.325 405.584 C 1136.046 406.863, 1135 408.356, 1135 408.903 C 1135 409.450, 1133.875 411.111, 1132.500 412.595 C 1131.125 414.078, 1130 415.854, 1130 416.540 C 1130 417.227, 1128.650 419.234, 1127 421 C 1125.350 422.766, 1124 424.839, 1124 425.606 C 1124 426.373, 1123.662 427.003, 1123.250 427.006 C 1122.416 427.013, 1119 432.663, 1119 434.036 C 1119 434.516, 1117.875 436.034, 1116.500 437.409 C 1115.125 438.784, 1114 440.582, 1114 441.405 C 1114 442.228, 1113.419 443.260, 1112.710 443.700 C 1110.782 444.895, 1103 456.748, 1103 458.489 C 1103 459.320, 1102.560 460, 1102.022 460 C 1100.992 460, 1071 504.426, 1071 505.950 C 1071 506.436, 1070.625 506.983, 1070.166 507.167 C 1069.069 507.605, 1049 537.847, 1049 539.062 C 1049 539.578, 1048.621 540, 1048.157 540 C 1047.694 540, 1046.457 541.688, 1045.407 543.750 C 1044.358 545.813, 1042.263 548.978, 1040.750 550.785 C 1039.237 552.591, 1038 554.481, 1038 554.983 C 1038 555.486, 1036.875 557.111, 1035.500 558.595 C 1034.125 560.078, 1033 562.111, 1033 563.111 C 1033 564.111, 1032.162 565.378, 1031.137 565.927 C 1030.113 566.475, 1028.684 568.349, 1027.962 570.091 C 1027.241 571.834, 1025.604 574.305, 1024.325 575.584 C 1023.046 576.863, 1022 578.356, 1022 578.903 C 1022 579.450, 1020.875 581.111, 1019.500 582.595 C 1018.125 584.078, 1017 586.078, 1017 587.039 C 1017 588, 1016.424 589.007, 1015.720 589.277 C 1015.016 589.547, 1013.553 591.468, 1012.470 593.545 C 1011.386 595.622, 1009.487 598.440, 1008.250 599.807 C 1007.013 601.174, 1006 602.739, 1006 603.286 C 1006 603.832, 1005.389 604.779, 1004.642 605.390 C 1003.185 606.581, 979 642.526, 979 643.501 C 979 643.821, 978.172 644.972, 977.160 646.059 C 976.148 647.145, 974.686 649.264, 973.912 650.767 C 973.137 652.270, 972.260 653.725, 971.963 654 C 971.095 654.803, 963 666.933, 963 667.429 C 963 667.678, 960.525 671.495, 957.500 675.912 C 954.475 680.329, 952 684.158, 952 684.420 C 952 684.682, 950.875 686.111, 949.500 687.595 C 948.125 689.078, 947 690.820, 947 691.466 C 947 692.112, 945.650 694.152, 944 696 C 942.350 697.848, 941 699.931, 941 700.629 C 941 701.326, 939.875 703.111, 938.500 704.595 C 937.125 706.078, 936 707.695, 936 708.188 C 936 708.681, 935.172 709.972, 934.160 711.059 C 933.148 712.145, 931.685 714.264, 930.910 715.767 C 930.134 717.270, 928.718 719.367, 927.761 720.426 C 926.805 721.486, 925.758 723.188, 925.434 724.209 C 925.110 725.229, 923.755 727.241, 922.422 728.678 C 921.090 730.116, 920 731.864, 920 732.563 C 920 733.262, 919.624 733.983, 919.165 734.167 C 917.950 734.651, 909 748.269, 909 749.632 C 909 750.267, 908.424 751.007, 907.720 751.277 C 907.016 751.547, 905.553 753.468, 904.470 755.545 C 903.386 757.622, 901.487 760.440, 900.250 761.807 C 899.012 763.174, 898 764.864, 898 765.563 C 898 766.262, 897.641 766.983, 897.202 767.167 C 896.283 767.550, 887 781.276, 887 782.250 C 887 782.606, 885.875 784.111, 884.500 785.595 C 883.125 787.078, 882 789.126, 882 790.146 C 882 791.166, 881.557 792, 881.016 792 C 879.684 792, 866.004 813.079, 866.002 815.135 C 866.001 816.034, 864.875 817.507, 863.500 818.408 C 862.125 819.309, 861 820.688, 861 821.473 C 861 822.258, 860.395 823.260, 859.656 823.700 C 857.918 824.734, 847 841.108, 847 842.680 C 847 843.341, 849.127 844.199, 851.750 844.595 C 854.362 844.989, 893.084 845.036, 937.798 844.698 C 1010.531 844.149, 1019.158 844.247, 1019.688 845.628 C 1020.013 846.477, 1019.542 849.827, 1018.640 853.071 C 1017.738 856.315, 1017 860.404, 1017 862.156 C 1017 863.909, 1016.393 866.053, 1015.650 866.921 C 1014.396 868.388, 1005.955 897.947, 1005.986 900.764 C 1005.994 901.459, 1005.552 902.809, 1005.004 903.764 C 1003.269 906.788, 995 938.267, 995 941.848 C 995 943.735, 994.353 945.779, 993.562 946.390 C 992.771 947, 991.584 950.425, 990.924 954 C 990.264 957.575, 989.145 961.850, 988.438 963.500 C 987.219 966.343, 986.066 970.400, 980.480 991.500 C 979.170 996.450, 977.176 1003.649, 976.049 1007.497 C 974.922 1011.345, 974 1015.857, 974 1017.524 C 974 1019.191, 973.385 1021.443, 972.633 1022.527 C 970.919 1025, 968 1034.967, 968 1038.345 C 968 1039.740, 967.588 1041.137, 967.084 1041.448 C 966.579 1041.760, 965.402 1045.499, 964.467 1049.757 C 963.531 1054.016, 962.385 1058.400, 961.920 1059.500 C 960.206 1063.553, 952 1094.102, 952 1096.431 C 952 1097.755, 951.338 1100.112, 950.528 1101.669 C 948.941 1104.722, 941 1132.887, 941 1135.464 C 941 1136.324, 940.570 1137.809, 940.044 1138.764 C 938.650 1141.294, 936 1151.413, 936 1154.204 C 936 1155.522, 935.579 1157.028, 935.065 1157.550 C 933.438 1159.203, 930 1173.262, 930 1178.261 C 930 1181.579, 929.542 1183.238, 928.520 1183.631 C 926.731 1184.317, 925.013 1190.065, 925.006 1195.390 C 925.003 1197.529, 924.368 1199.779, 923.597 1200.390 C 922.825 1201, 921.501 1204.425, 920.654 1208 C 919.808 1211.575, 917.964 1218.302, 916.558 1222.949 C 915.151 1227.595, 914 1232.343, 914 1233.499 C 914 1234.654, 913.585 1236.028, 913.077 1236.550 C 912.570 1237.073, 911.458 1240.215, 910.606 1243.534 C 909.030 1249.673, 909.517 1255.006, 911.720 1255.740 C 912.330 1255.943, 926.566 1235.498, 943.354 1210.305 C 960.143 1185.112, 985.969 1146.500, 1000.747 1124.500 C 1015.525 1102.500, 1041.796 1063.350, 1059.129 1037.500 C 1116.608 951.775, 1174.547 865.624, 1180.858 856.500 C 1184.282 851.550, 1194.827 835.908, 1204.292 821.739 C 1213.756 807.570, 1233.762 777.795, 1248.750 755.571 C 1263.737 733.347, 1276.263 714.479, 1276.584 713.642 C 1277.105 712.285, 1269.391 712.184, 1205.334 712.706 C 1165.825 713.028, 1126.953 712.959, 1118.951 712.552 L 1104.402 711.812 1106.094 705.156 C 1107.024 701.495, 1111.856 683.875, 1116.831 666 C 1121.806 648.125, 1128.402 624.050, 1131.489 612.500 C 1134.575 600.950, 1139.550 582.839, 1142.544 572.254 C 1145.538 561.669, 1151.393 540.519, 1155.554 525.254 C 1159.716 509.989, 1167.839 480.625, 1173.606 460 C 1179.373 439.375, 1188.155 407.875, 1193.121 390 C 1198.087 372.125, 1206.004 344, 1210.715 327.500 C 1215.425 311, 1220.312 293.788, 1221.573 289.250 L 1223.866 281 1221.683 281.057 C 1219.959 281.102, 1216.348 285.948, 1204.500 304.115 M 1531.425 378 C 1531.425 389.825, 1531.569 394.663, 1531.746 388.750 C 1531.923 382.837, 1531.923 373.163, 1531.746 367.250 C 1531.569 361.337, 1531.425 366.175, 1531.425 378 M 1348.378 469 C 1348.378 475.325, 1348.541 477.913, 1348.739 474.750 C 1348.937 471.587, 1348.937 466.413, 1348.739 463.250 C 1348.541 460.087, 1348.378 462.675, 1348.378 469 M 1531.472 561 C 1531.472 597.575, 1531.597 612.538, 1531.750 594.250 C 1531.902 575.962, 1531.902 546.038, 1531.750 527.750 C 1531.597 509.462, 1531.472 524.425, 1531.472 561 M 1531.392 645 C 1531.392 652.425, 1531.549 655.462, 1531.742 651.750 C 1531.934 648.038, 1531.934 641.962, 1531.742 638.250 C 1531.549 634.538, 1531.392 637.575, 1531.392 645 M 1348.488 796.500 C 1348.488 885.050, 1348.606 921.127, 1348.750 876.671 C 1348.894 832.215, 1348.894 759.765, 1348.750 715.671 C 1348.606 671.577, 1348.488 707.950, 1348.488 796.500" stroke="none" fill="#fa710c" fill-rule="evenodd"/><path d="M 593.670 182.750 C 593.423 183.162, 593.154 425.712, 593.073 721.750 C 592.965 1111.718, 593.226 1260, 594.021 1260 C 594.996 1260, 612.979 1242.860, 667.998 1189.493 C 684.486 1173.500, 755.181 1105.463, 768.469 1092.800 L 775.500 1086.099 776 826.129 L 776.500 566.158 802 589.239 C 816.025 601.933, 840.751 624.285, 856.947 638.910 C 873.143 653.534, 888.509 667.413, 891.094 669.750 C 893.679 672.087, 896.178 673.986, 896.647 673.968 C 897.706 673.929, 990 535.838, 990 534.293 C 990 533.677, 982.462 526.460, 973.250 518.256 C 964.038 510.052, 933.970 483.126, 906.433 458.420 C 839.118 398.026, 761.676 328.562, 749.947 318.057 C 744.693 313.351, 733.668 303.371, 725.447 295.879 C 717.226 288.388, 703.495 276.013, 694.933 268.379 C 686.372 260.746, 667.472 243.898, 652.933 230.939 C 638.395 217.980, 620.225 201.668, 612.555 194.689 C 599.545 182.851, 595.238 180.127, 593.670 182.750 M 1519.314 279.584 C 1515.566 283.755, 1507.550 292.230, 1501.500 298.417 C 1495.450 304.605, 1485.662 314.622, 1479.750 320.679 C 1473.838 326.735, 1469 332.210, 1469 332.845 C 1469 333.480, 1468.485 334, 1467.855 334 C 1467.225 334, 1463.962 336.838, 1460.605 340.307 C 1457.247 343.776, 1448.088 353.183, 1440.250 361.212 C 1432.412 369.241, 1426 376.250, 1426 376.788 C 1426 377.326, 1425.102 378.001, 1424.005 378.288 C 1422.908 378.575, 1421.749 379.492, 1421.429 380.324 C 1421.109 381.157, 1413.795 388.993, 1405.174 397.737 C 1379.794 423.480, 1372 431.743, 1372 432.905 C 1372 433.507, 1371.378 434, 1370.619 434 C 1369.859 434, 1368.118 435.462, 1366.751 437.250 C 1365.383 439.038, 1361.478 443.200, 1358.073 446.500 C 1354.668 449.800, 1351.121 454.075, 1350.191 456 C 1348.614 459.264, 1348.525 476.238, 1348.874 708.250 C 1349.080 845.063, 1348.916 957, 1348.510 957 C 1347.847 957, 1341.959 951.953, 1317 929.992 C 1312.875 926.363, 1302.075 916.898, 1293 908.960 C 1283.925 901.021, 1270.200 888.882, 1262.500 881.982 C 1243.016 864.525, 1243.881 865.107, 1238.838 866.030 C 1234.795 866.769, 1232 869.036, 1232 871.576 C 1232 872.233, 1230.875 873.507, 1229.500 874.408 C 1228.125 875.309, 1227 876.745, 1227 877.600 C 1227 878.455, 1225.650 880.504, 1224 882.154 C 1222.350 883.804, 1221 886.019, 1221 887.077 C 1221 888.135, 1220.569 889, 1220.043 889 C 1218.938 889, 1194 926.162, 1194 927.808 C 1194 928.409, 1193.374 929.260, 1192.608 929.700 C 1191.842 930.140, 1190.380 931.865, 1189.358 933.533 C 1188.336 935.202, 1186.600 938.048, 1185.500 939.857 C 1184.400 941.667, 1182.485 944.352, 1181.244 945.824 C 1180.003 947.296, 1178.731 949.302, 1178.416 950.282 C 1178.102 951.262, 1176.755 953.154, 1175.422 954.487 C 1174.090 955.819, 1173 957.605, 1173 958.455 C 1173 959.305, 1172.629 960, 1172.176 960 C 1171.034 960, 1162 973.770, 1162 975.512 C 1162 976.292, 1161.105 977.408, 1160.012 977.994 C 1158.918 978.579, 1157.718 980.282, 1157.344 981.779 C 1156.970 983.275, 1155.502 985.675, 1154.082 987.110 C 1150.459 990.773, 1146 997.087, 1146 998.554 C 1146 999.232, 1145.396 1000.018, 1144.658 1000.301 C 1143.002 1000.936, 1140 1007.077, 1140 1009.828 C 1140 1011.840, 1142.257 1013.847, 1216 1077.415 C 1230.025 1089.504, 1254.775 1110.912, 1271 1124.987 C 1287.225 1139.062, 1311.750 1160.207, 1325.500 1171.975 C 1339.250 1183.744, 1355 1197.289, 1360.500 1202.076 C 1366 1206.862, 1389.850 1227.348, 1413.500 1247.599 C 1437.150 1267.850, 1463.503 1290.513, 1472.061 1297.960 C 1503.554 1325.362, 1528.227 1346.521, 1529.595 1347.300 C 1530.801 1347.986, 1531 1271.923, 1531 810.050 L 1531 272 1528.564 272 C 1526.796 272, 1524.260 274.079, 1519.314 279.584" stroke="none" fill="#fbf9f8" fill-rule="evenodd"/></svg>